<svg id="svg" version="1.1" xmlns="http://www.w3.org/2000/svg" xmlns:xlink="http://www.w3.org/1999/xlink" width="400" height="299.15966386554624" viewBox="0, 0, 400,299.15966386554624"><g id="svgg"><path id="path0" d="M198.992 5.378 C 198.406 6.118,198.022 6.723,198.139 6.723 C 198.256 6.723,197.928 7.366,197.411 8.151 C 196.894 8.937,196.421 9.807,196.360 10.084 C 196.299 10.361,196.011 10.853,195.720 11.176 C 195.428 11.500,195.287 11.765,195.406 11.765 C 195.525 11.765,195.246 12.615,194.786 13.655 C 194.326 14.695,193.949 15.716,193.948 15.924 C 193.946 16.132,193.753 16.681,193.518 17.143 C 193.282 17.605,193.043 18.588,192.986 19.328 C 192.704 22.957,191.630 24.580,188.406 26.250 C 184.410 28.320,183.796 28.699,183.608 29.209 C 183.498 29.505,183.066 30.277,182.646 30.924 C 182.227 31.571,181.835 32.479,181.774 32.941 C 181.713 33.403,181.572 33.933,181.461 34.118 C 181.253 34.463,180.958 37.643,180.666 42.689 C 180.576 44.261,180.429 46.151,180.340 46.891 C 180.251 47.630,180.092 49.975,179.985 52.101 C 179.879 54.227,179.654 56.874,179.486 57.983 C 179.318 59.092,179.094 60.908,178.989 62.017 C 178.884 63.126,178.702 64.487,178.585 65.042 C 178.467 65.597,178.337 66.580,178.295 67.227 C 178.253 67.874,178.138 68.857,178.039 69.412 C 177.940 69.966,177.760 71.237,177.640 72.236 C 177.360 74.553,177.230 75.217,176.975 75.630 C 176.861 75.814,176.706 76.288,176.630 76.683 C 176.554 77.079,176.260 77.659,175.977 77.972 C 175.694 78.284,175.462 78.682,175.462 78.856 C 175.462 79.030,175.079 79.736,174.610 80.426 C 174.141 81.116,173.856 81.681,173.977 81.681 C 174.098 81.681,173.794 82.210,173.300 82.857 C 172.807 83.504,172.517 84.034,172.656 84.034 C 173.185 84.034,170.206 86.793,169.233 87.204 C 167.547 87.918,165.126 88.056,151.261 88.231 C 143.958 88.324,136.697 88.478,135.126 88.574 C 133.555 88.670,128.941 88.822,124.874 88.912 C 117.725 89.069,111.652 89.258,102.857 89.595 C 100.546 89.684,96.084 89.827,92.941 89.913 C 89.798 89.999,85.639 90.142,83.697 90.231 C 81.756 90.320,77.521 90.477,74.286 90.579 C 71.050 90.682,67.269 90.841,65.882 90.933 C 64.496 91.024,61.319 91.177,58.824 91.271 C 56.328 91.365,52.622 91.607,50.588 91.809 C 48.555 92.010,46.664 92.173,46.387 92.172 C 46.109 92.170,44.445 92.305,42.689 92.473 C 40.933 92.641,38.739 92.844,37.815 92.925 C 32.464 93.395,31.239 93.551,29.412 93.992 C 28.303 94.260,26.975 94.543,26.463 94.620 C 25.950 94.697,25.408 94.836,25.258 94.928 C 25.108 95.021,24.469 95.187,23.837 95.297 C 20.411 95.894,17.824 96.667,15.908 97.665 C 14.727 98.281,13.652 98.801,13.519 98.822 C 13.386 98.843,12.426 99.570,11.385 100.438 C 10.344 101.306,8.873 102.519,8.116 103.134 C 7.359 103.748,6.773 104.353,6.814 104.478 C 6.855 104.603,6.441 105.291,5.895 106.006 C 4.790 107.452,4.745 107.597,4.548 110.336 C 4.472 111.399,4.334 112.391,4.242 112.540 C 4.149 112.690,3.990 113.510,3.888 114.364 C 3.785 115.218,3.495 116.802,3.242 117.885 C 2.252 122.129,3.050 123.453,5.296 121.297 C 8.032 118.672,9.247 118.528,16.303 119.996 C 18.151 120.381,20.253 120.771,20.973 120.862 C 21.693 120.954,22.375 121.086,22.490 121.157 C 22.604 121.228,23.528 121.376,24.542 121.486 C 25.557 121.596,26.689 121.741,27.059 121.808 C 28.774 122.120,31.185 122.463,32.101 122.524 C 32.962 122.581,34.656 122.832,36.639 123.197 C 36.916 123.248,38.126 123.397,39.328 123.528 C 40.529 123.659,41.604 123.822,41.717 123.890 C 41.829 123.958,42.812 124.100,43.902 124.205 C 44.991 124.310,46.261 124.460,46.723 124.538 C 47.185 124.616,49.076 124.779,50.924 124.899 C 52.773 125.019,54.513 125.160,54.790 125.212 C 55.328 125.313,58.048 125.590,61.345 125.879 C 62.454 125.976,63.891 126.124,64.538 126.209 C 65.185 126.294,67.075 126.458,68.738 126.574 C 70.400 126.690,71.844 126.836,71.947 126.899 C 72.049 126.962,73.500 127.104,75.171 127.213 C 76.842 127.323,78.499 127.466,78.853 127.532 C 79.837 127.716,82.617 128.036,85.042 128.246 C 86.244 128.349,87.454 128.495,87.731 128.570 C 88.008 128.645,89.439 128.796,90.910 128.904 C 93.492 129.095,95.037 129.273,96.807 129.587 C 97.269 129.669,98.555 129.817,99.664 129.916 C 100.773 130.015,102.588 130.190,103.697 130.305 C 104.807 130.419,106.168 130.552,106.723 130.598 C 109.543 130.836,112.528 131.143,113.277 131.273 C 113.739 131.353,115.555 131.503,117.311 131.606 C 119.067 131.709,120.731 131.857,121.008 131.935 C 121.286 132.013,122.723 132.163,124.202 132.267 C 125.681 132.372,127.345 132.513,127.899 132.581 C 128.454 132.648,129.891 132.807,131.092 132.933 C 132.294 133.059,133.655 133.217,134.118 133.283 C 134.580 133.350,136.319 133.502,137.983 133.622 C 139.647 133.742,141.689 133.898,142.521 133.968 C 143.353 134.038,145.092 134.175,146.387 134.272 C 147.681 134.369,149.723 134.533,150.924 134.637 C 152.126 134.741,153.941 134.888,154.958 134.965 C 155.975 135.042,157.336 135.186,157.983 135.285 C 158.630 135.385,159.985 135.558,160.993 135.669 C 162.503 135.836,164.678 136.329,166.555 136.931 C 168.698 137.617,170.330 138.835,173.679 142.245 C 177.256 145.889,178.023 146.980,178.360 148.908 C 178.441 149.370,178.593 149.975,178.699 150.252 C 178.805 150.529,179.181 151.891,179.535 153.277 C 179.889 154.664,180.249 156.025,180.335 156.303 C 180.421 156.580,180.800 158.017,181.176 159.496 C 181.553 160.975,181.934 162.450,182.023 162.773 C 182.112 163.097,182.254 163.676,182.339 164.060 C 182.423 164.445,182.598 165.088,182.727 165.489 C 182.857 165.890,183.010 166.521,183.068 166.891 C 183.127 167.261,184.014 171.042,185.040 175.294 C 186.067 179.546,186.957 183.328,187.019 183.697 C 187.081 184.067,187.376 185.580,187.673 187.059 C 187.971 188.538,188.290 190.353,188.381 191.092 C 188.644 193.210,188.915 195.053,189.100 195.966 C 189.193 196.429,189.336 197.487,189.418 198.319 C 189.499 199.151,189.642 200.210,189.735 200.672 C 189.936 201.668,190.125 202.921,190.419 205.210 C 190.538 206.134,190.704 207.420,190.787 208.067 C 190.871 208.714,191.099 210.151,191.295 211.261 C 191.490 212.370,191.696 213.907,191.753 214.676 C 191.809 215.445,191.956 216.237,192.079 216.435 C 192.202 216.634,192.371 218.046,192.456 219.574 C 192.541 221.103,192.755 223.941,192.931 225.882 C 193.108 227.824,193.351 231.000,193.472 232.941 C 193.593 234.882,193.744 236.559,193.807 236.668 C 193.870 236.777,194.018 238.970,194.136 241.542 C 194.254 244.114,194.403 246.304,194.468 246.409 C 194.532 246.513,194.668 249.236,194.770 252.459 C 194.872 255.682,195.054 259.832,195.176 261.681 C 195.298 263.529,195.426 265.496,195.462 266.050 C 195.627 268.606,193.536 271.665,191.308 272.124 C 190.635 272.263,189.933 272.411,189.748 272.452 C 189.298 272.553,184.224 273.345,183.304 273.459 C 182.902 273.508,182.146 273.642,181.623 273.756 C 181.100 273.870,180.143 274.029,179.496 274.110 C 178.166 274.276,175.963 274.631,174.958 274.842 C 174.588 274.920,173.605 275.063,172.773 275.161 C 171.941 275.259,171.034 275.416,170.756 275.510 C 170.479 275.604,169.571 275.752,168.739 275.839 C 167.908 275.926,166.849 276.090,166.387 276.203 C 165.043 276.530,164.924 276.550,162.844 276.793 C 161.755 276.920,160.783 277.074,160.684 277.135 C 160.585 277.196,159.672 277.350,158.655 277.479 C 157.639 277.608,156.724 277.763,156.623 277.825 C 156.523 277.887,155.615 278.030,154.607 278.143 C 152.647 278.362,151.594 278.532,150.252 278.844 C 149.790 278.951,149.185 279.073,148.908 279.115 C 147.044 279.393,142.992 282.782,142.957 284.092 C 142.934 284.959,142.522 288.115,142.333 288.867 C 142.056 289.972,142.714 290.328,145.378 290.515 C 147.726 290.679,148.414 290.798,150.385 291.382 C 150.959 291.551,152.034 291.662,152.773 291.626 C 153.513 291.591,154.571 291.675,155.126 291.813 C 155.681 291.950,156.966 292.152,157.983 292.261 C 159.000 292.370,160.210 292.511,160.672 292.575 C 161.134 292.639,162.420 292.803,163.529 292.939 C 164.639 293.075,165.778 293.230,166.062 293.283 C 166.346 293.336,167.405 293.480,168.415 293.605 C 170.364 293.844,171.286 293.973,172.989 294.244 C 173.570 294.337,175.076 294.512,176.336 294.634 C 177.596 294.756,178.860 294.899,179.145 294.951 C 179.629 295.041,181.427 295.278,184.202 295.617 C 184.849 295.697,186.513 295.928,187.899 296.131 C 189.286 296.334,191.176 296.567,192.101 296.649 C 193.025 296.731,194.160 296.873,194.622 296.964 C 195.084 297.056,196.368 297.222,197.475 297.334 C 198.581 297.446,199.575 297.592,199.682 297.658 C 199.789 297.725,200.472 297.576,201.199 297.328 C 201.926 297.080,203.731 296.778,205.210 296.658 C 206.689 296.537,208.807 296.300,209.916 296.131 C 211.025 295.962,212.765 295.739,213.782 295.635 C 214.798 295.531,216.008 295.378,216.471 295.295 C 216.933 295.212,218.370 295.058,219.664 294.953 C 220.958 294.849,222.395 294.692,222.857 294.604 C 223.319 294.517,224.529 294.375,225.546 294.289 C 227.978 294.085,230.714 293.742,230.924 293.615 C 231.017 293.559,232.378 293.414,233.950 293.292 C 235.521 293.171,237.034 293.010,237.311 292.936 C 237.798 292.805,238.317 292.743,243.025 292.256 C 244.227 292.131,245.437 291.986,245.714 291.933 C 245.992 291.880,247.202 291.735,248.403 291.611 C 249.605 291.487,251.193 291.306,251.933 291.208 C 252.672 291.110,253.897 291.006,254.654 290.977 C 257.193 290.880,257.569 289.622,256.379 285.210 C 256.179 284.471,256.045 283.745,256.081 283.597 C 256.164 283.253,252.836 280.000,252.401 280.000 C 252.221 280.000,251.664 279.701,251.163 279.336 C 250.662 278.971,249.571 278.593,248.739 278.496 C 247.908 278.399,246.849 278.247,246.387 278.157 C 245.924 278.068,245.017 277.912,244.370 277.811 C 243.723 277.710,242.361 277.489,241.345 277.321 C 240.328 277.152,238.739 276.921,237.815 276.807 C 236.891 276.694,235.529 276.467,234.790 276.303 C 234.050 276.140,232.708 275.919,231.807 275.812 C 230.906 275.705,230.074 275.560,229.958 275.488 C 229.842 275.417,228.945 275.269,227.965 275.160 C 226.984 275.051,225.849 274.887,225.444 274.797 C 225.038 274.706,224.025 274.550,223.193 274.449 C 222.361 274.348,221.378 274.210,221.008 274.141 C 220.639 274.072,219.218 273.847,217.852 273.641 C 216.485 273.435,215.048 273.199,214.658 273.117 C 214.269 273.035,213.118 272.883,212.101 272.778 C 208.367 272.394,206.367 271.734,205.103 270.470 C 203.632 268.999,203.675 270.551,204.521 249.580 C 204.865 241.051,204.995 238.978,205.342 236.471 C 205.521 235.176,205.757 233.059,205.867 231.765 C 205.978 230.471,206.132 229.034,206.210 228.571 C 206.289 228.109,206.445 226.824,206.558 225.714 C 206.859 222.749,207.038 221.152,207.219 219.832 C 207.308 219.185,207.474 217.521,207.588 216.134 C 207.703 214.748,207.841 213.538,207.896 213.445 C 207.950 213.353,208.094 212.112,208.215 210.688 C 208.337 209.264,208.488 207.827,208.552 207.495 C 208.685 206.802,209.117 203.010,209.233 201.513 C 209.276 200.958,209.418 199.748,209.549 198.824 C 209.679 197.899,209.847 196.462,209.921 195.630 C 210.214 192.332,210.502 190.332,210.961 188.403 C 211.225 187.294,211.520 186.008,211.616 185.546 C 211.712 185.084,211.867 184.453,211.960 184.144 C 212.053 183.836,212.198 183.269,212.283 182.884 C 212.368 182.499,212.506 181.920,212.590 181.597 C 213.588 177.753,214.160 175.484,214.305 174.790 C 214.401 174.328,214.556 173.697,214.649 173.388 C 214.742 173.079,214.887 172.512,214.972 172.128 C 215.057 171.743,215.214 171.088,215.321 170.672 C 215.428 170.256,215.576 169.613,215.651 169.244 C 215.725 168.874,216.171 167.059,216.641 165.210 C 217.680 161.123,217.757 160.798,218.025 159.381 C 218.142 158.764,218.601 157.251,219.046 156.020 C 220.117 153.054,220.170 152.843,220.641 149.664 C 220.928 147.728,221.916 146.283,225.122 143.109 C 226.943 141.307,228.551 139.832,228.694 139.832 C 228.837 139.832,229.625 139.371,230.444 138.807 C 231.263 138.244,231.933 137.876,231.933 137.990 C 231.933 138.104,232.349 137.902,232.857 137.542 C 234.290 136.526,236.542 135.897,239.664 135.640 C 241.235 135.511,242.975 135.348,243.529 135.278 C 244.084 135.208,245.824 135.063,247.395 134.955 C 248.966 134.847,250.479 134.695,250.756 134.617 C 251.034 134.539,252.622 134.393,254.286 134.294 C 255.950 134.194,257.840 134.043,258.487 133.957 C 259.134 133.872,260.950 133.718,262.521 133.615 C 264.092 133.512,265.908 133.360,266.555 133.278 C 267.936 133.101,270.384 132.886,274.118 132.612 C 275.597 132.503,277.261 132.345,277.815 132.260 C 278.370 132.174,279.958 132.028,281.345 131.933 C 282.731 131.839,284.244 131.692,284.706 131.606 C 285.168 131.521,286.529 131.362,287.731 131.252 C 288.933 131.143,290.899 130.917,292.101 130.750 C 293.303 130.583,295.193 130.364,296.303 130.262 C 297.412 130.160,298.924 129.999,299.664 129.905 C 300.403 129.811,301.916 129.665,303.025 129.580 C 304.134 129.494,305.647 129.350,306.387 129.259 C 307.126 129.168,308.563 129.016,309.580 128.921 C 313.007 128.600,315.261 128.385,316.710 128.242 C 317.503 128.164,319.134 128.014,320.336 127.911 C 321.538 127.807,323.050 127.648,323.697 127.559 C 324.345 127.469,325.857 127.319,327.059 127.225 C 328.261 127.131,329.773 126.982,330.420 126.893 C 331.067 126.805,332.353 126.662,333.277 126.577 C 337.614 126.178,339.718 125.956,340.336 125.831 C 340.706 125.756,341.916 125.622,343.025 125.533 C 344.134 125.444,345.420 125.285,345.882 125.179 C 346.344 125.074,347.705 124.925,348.907 124.848 C 350.109 124.771,352.076 124.561,353.277 124.381 C 355.774 124.008,361.265 123.396,362.017 123.408 C 362.294 123.412,362.824 123.345,363.193 123.260 C 364.025 123.068,366.649 122.618,367.588 122.507 C 367.972 122.462,369.106 122.261,370.109 122.060 C 371.112 121.859,372.462 121.613,373.109 121.513 C 373.756 121.414,374.664 121.263,375.126 121.176 C 375.588 121.090,376.496 120.936,377.143 120.834 C 377.790 120.732,379.908 120.340,381.849 119.962 C 390.324 118.314,391.482 118.419,394.228 121.080 C 396.121 122.916,397.681 123.366,397.472 122.017 C 397.401 121.558,396.979 119.409,396.449 116.807 C 395.799 113.619,395.675 113.033,395.490 112.269 C 395.379 111.807,395.206 110.975,395.108 110.420 C 394.632 107.742,394.195 106.919,391.983 104.523 C 389.854 102.216,386.555 99.479,386.555 100.019 C 386.555 100.145,386.025 99.844,385.378 99.351 C 384.731 98.857,384.202 98.528,384.202 98.620 C 384.202 98.712,383.408 98.438,382.437 98.011 C 378.503 96.283,370.876 94.206,366.218 93.594 C 365.294 93.473,364.398 93.289,364.228 93.186 C 364.058 93.083,363.453 92.964,362.884 92.922 C 362.314 92.881,360.714 92.739,359.328 92.608 C 355.185 92.215,354.263 92.144,350.924 91.953 C 349.168 91.853,346.445 91.697,344.874 91.607 C 343.303 91.516,339.824 91.358,337.143 91.257 C 334.462 91.155,331.286 91.002,330.084 90.916 C 327.945 90.763,322.515 90.545,313.782 90.263 C 311.378 90.185,306.689 90.022,303.361 89.900 C 294.877 89.590,290.799 89.458,284.034 89.274 C 280.798 89.186,276.185 89.025,273.782 88.916 C 271.378 88.806,266.008 88.648,261.849 88.563 C 257.689 88.478,252.017 88.325,249.244 88.224 C 246.471 88.123,241.933 87.973,239.160 87.891 C 232.621 87.697,231.055 87.361,228.975 85.705 C 227.318 84.385,224.538 81.081,224.538 80.430 C 224.538 80.239,224.324 79.905,224.063 79.688 C 222.930 78.748,222.226 76.370,221.856 72.236 C 221.650 69.943,221.423 67.840,221.351 67.563 C 221.278 67.286,221.130 66.000,221.022 64.706 C 220.913 63.412,220.676 61.218,220.494 59.832 C 220.312 58.445,220.096 56.328,220.013 55.126 C 219.877 53.137,219.625 50.557,219.305 47.899 C 219.239 47.345,219.094 45.605,218.984 44.034 C 218.725 40.319,218.561 38.643,218.379 37.815 C 218.297 37.445,218.119 36.462,217.982 35.630 C 217.502 32.707,217.451 32.432,217.284 31.876 C 217.191 31.567,217.051 30.962,216.973 30.531 C 216.775 29.437,214.480 27.478,212.796 26.966 C 209.612 25.999,207.164 24.332,207.124 23.104 C 207.120 22.963,207.004 22.207,206.866 21.424 C 206.729 20.641,206.590 19.773,206.559 19.496 C 206.527 19.218,206.397 18.538,206.270 17.983 C 206.143 17.429,205.966 16.634,205.877 16.218 C 205.084 12.525,204.655 11.221,203.338 8.491 C 202.603 6.968,201.994 5.607,201.985 5.466 C 201.883 3.836,200.251 3.788,198.992 5.378 M355.462 134.118 C 355.348 134.303,355.566 134.454,355.947 134.454 C 356.327 134.454,356.639 134.303,356.639 134.118 C 356.639 133.933,356.421 133.782,356.154 133.782 C 355.888 133.782,355.576 133.933,355.462 134.118 M353.613 134.454 C 353.613 134.639,353.916 134.790,354.286 134.790 C 354.655 134.790,354.958 134.639,354.958 134.454 C 354.958 134.269,354.655 134.118,354.286 134.118 C 353.916 134.118,353.613 134.269,353.613 134.454 M154.958 145.195 C 154.958 145.636,157.171 146.015,157.897 145.698 C 158.383 145.486,158.309 145.398,157.479 145.197 C 155.977 144.834,154.958 144.833,154.958 145.195 " stroke="none" fill="#000000" fill-rule="evenodd"></path></g></svg>