<?xml version="1.0" encoding="UTF-8" standalone="no"?>
<svg
   xmlns:dc="http://purl.org/dc/elements/1.1/"
   xmlns:cc="http://creativecommons.org/ns#"
   xmlns:rdf="http://www.w3.org/1999/02/22-rdf-syntax-ns#"
   xmlns:svg="http://www.w3.org/2000/svg"
   xmlns="http://www.w3.org/2000/svg"
   xmlns:sodipodi="http://sodipodi.sourceforge.net/DTD/sodipodi-0.dtd"
   xmlns:inkscape="http://www.inkscape.org/namespaces/inkscape"
   width="210mm"
   height="297mm"
   viewBox="0 0 744.09448819 1052.3622047"
   id="svg2"
   version="1.1"
   inkscape:version="1.0.2 (e86c870879, 2021-01-15)"
   sodipodi:docname="image2vector_FORMAT_TEST (copy).svg">
  <defs
     id="defs4" />
  <sodipodi:namedview
     id="base"
     pagecolor="#ffffff"
     bordercolor="#666666"
     borderopacity="1.0"
     inkscape:pageopacity="0.0"
     inkscape:pageshadow="2"
     inkscape:zoom="0.5"
     inkscape:cx="226.59111"
     inkscape:cy="523.5724"
     inkscape:document-units="px"
     inkscape:current-layer="layer1"
     showgrid="false"
     inkscape:window-width="1332"
     inkscape:window-height="971"
     inkscape:window-x="50"
     inkscape:window-y="75"
     inkscape:window-maximized="0"
     inkscape:document-rotation="0"
     inkscape:snap-global="true" />
  <metadata
     id="metadata7">
    <rdf:RDF>
      <cc:Work
         rdf:about="">
        <dc:format>image/svg+xml</dc:format>
        <dc:type
           rdf:resource="http://purl.org/dc/dcmitype/StillImage" />
        <dc:title />
      </cc:Work>
    </rdf:RDF>
  </metadata>
  <g
     inkscape:label="Calque 1"
     inkscape:groupmode="layer"
     id="layer1"
     style="display:inline">
    <path
       inkscape:connector-curvature="0"
       id="path0"
       d="m 371.76428,265.93787 c -1.10211,1.39174 -1.82432,2.52959 -1.60427,2.52959 0.22005,0 -0.39683,1.20931 -1.36917,2.68568 -0.97234,1.47826 -1.86193,3.1145 -1.97665,3.63546 -0.11473,0.52097 -0.65638,1.44629 -1.20367,2.05376 -0.54918,0.60936 -0.81436,1.10776 -0.59055,1.10776 0.2238,0 -0.30092,1.59862 -1.16606,3.55458 -0.86514,1.95596 -1.57417,3.87619 -1.57605,4.26739 -0.004,0.39119 -0.36675,1.42371 -0.80872,2.29261 -0.44385,0.8689 -0.89335,2.71766 -1.00055,4.1094 -0.53037,6.82518 -2.55027,9.87761 -8.61376,13.01844 -7.51541,3.89312 -8.67018,4.60592 -9.02376,5.56509 -0.20688,0.5567 -1.01935,2.00862 -1.80926,3.22546 -0.78803,1.21683 -1.52528,2.92454 -1.64,3.79344 -0.11473,0.8689 -0.37991,1.86568 -0.58867,2.21362 -0.39119,0.64885 -0.94601,6.62959 -1.49519,16.11977 -0.16926,2.95651 -0.44573,6.5111 -0.61311,7.90284 -0.16739,1.38986 -0.46643,5.80018 -0.66766,9.79862 -0.19936,3.99844 -0.62253,8.97674 -0.93849,11.06247 -0.31596,2.08573 -0.73725,5.50115 -0.93473,7.58688 -0.19747,2.08573 -0.53977,4.64541 -0.75981,5.68922 -0.22193,1.04381 -0.46642,2.89257 -0.54541,4.1094 -0.079,1.21684 -0.29528,3.0656 -0.48147,4.1094 -0.18619,1.04193 -0.52473,3.43234 -0.75041,5.31119 -0.52661,4.35766 -0.77111,5.60647 -1.25069,6.38321 -0.21441,0.34606 -0.50592,1.23753 -0.64886,1.98042 -0.14293,0.74477 -0.69587,1.83559 -1.22811,2.42426 -0.53225,0.58679 -0.96858,1.33532 -0.96858,1.66257 0,0.32725 -0.72032,1.65505 -1.60239,2.95275 -0.88206,1.29771 -1.41807,2.36032 -1.1905,2.36032 0.22757,0 -0.34418,0.99491 -1.27326,2.21174 -0.9272,1.21684 -1.47261,2.21363 -1.21119,2.21363 0.99491,0 -4.6078,5.18894 -6.43775,5.96192 -3.17092,1.34285 -7.72417,1.60239 -33.80054,1.93152 -13.735,0.1749 -27.391,0.46454 -30.34564,0.64509 -2.95463,0.18055 -11.63233,0.46642 -19.28128,0.63569 -13.44536,0.29527 -24.86705,0.65073 -41.4081,1.28454 -4.34638,0.16738 -12.73821,0.43633 -18.64936,0.59807 -5.91114,0.16174 -13.73311,0.43069 -17.3855,0.59807 -3.6505,0.16739 -11.61541,0.46266 -17.69958,0.6545 -6.08605,0.19371 -13.19711,0.49275 -15.80568,0.66578 -2.6067,0.17115 -8.58179,0.4589 -13.27422,0.63569 -4.69431,0.17679 -11.66431,0.63192 -15.489722,1.01183 -3.823531,0.37803 -7.379998,0.68459 -7.900961,0.68271 -0.522844,-0.004 -3.652384,0.25013 -6.954952,0.5661 -3.302568,0.31596 -7.428897,0.69775 -9.166695,0.85009 -10.063805,0.88394 -12.367703,1.17734 -15.803803,2.00674 -2.085734,0.50404 -4.583348,1.03629 -5.546283,1.1811 -0.964816,0.14482 -1.984174,0.40624 -2.266284,0.57927 -0.28211,0.17491 -1.483899,0.48711 -2.672522,0.69399 -6.443393,1.1228 -11.308851,2.5766 -14.912336,4.45358 -2.221146,1.15853 -4.242935,2.13651 -4.493072,2.176 -0.250138,0.0395 -2.055642,1.40679 -4.013485,3.03927 -1.957844,1.63248 -4.724403,3.91381 -6.148118,5.07046 -1.423715,1.15477 -2.525825,2.29261 -2.448715,2.5277 0.07711,0.23509 -0.7015135,1.52904 -1.7283939,2.87376 -2.0782105,2.71954 -2.1628435,2.99225 -2.533348,8.14358 -0.1429357,1.99922 -0.402477,3.86491 -0.5755044,4.14514 -0.1749083,0.28211 -0.4739449,1.82431 -0.6657797,3.43045 -0.1937155,1.60615 -0.7391282,4.58523 -1.2149538,6.62207 -1.8619261,7.98183 -0.3611008,10.47192 3.8630265,6.41706 5.1456863,-4.93693 7.4307783,-5.20775 20.7012333,-2.44684 3.475595,0.72409 7.428897,1.45757 8.783025,1.62872 1.354128,0.17303 2.636788,0.42128 2.853073,0.55482 0.214403,0.13353 1.952201,0.41188 3.859265,0.61876 1.908944,0.20688 4.037935,0.47958 4.733806,0.60559 3.225458,0.58679 7.759906,1.23188 9.482658,1.34661 1.619311,0.1072 4.805274,0.57926 8.534768,1.26573 0.520964,0.0959 2.796651,0.37615 5.057293,0.62253 2.258761,0.24637 4.280549,0.55293 4.493072,0.68082 0.210642,0.12789 2.059403,0.39495 4.109402,0.59243 2.048119,0.19748 4.436651,0.47959 5.30555,0.62629 0.868898,0.14669 4.425365,0.45325 7.900961,0.67894 3.477476,0.22569 6.749955,0.49087 7.270915,0.58867 1.01183,0.18995 6.12743,0.71092 12.32821,1.25445 2.08573,0.18243 4.78835,0.46078 6.00518,0.62064 1.21683,0.15986 4.77142,0.4683 7.89908,0.68647 3.12578,0.21816 5.84156,0.49275 6.03527,0.61124 0.19184,0.11848 2.92078,0.38555 6.06349,0.59055 3.1427,0.20688 6.25908,0.47582 6.92486,0.59995 1.85064,0.34606 7.07908,0.94789 11.63986,1.34285 2.26064,0.19371 4.53633,0.4683 5.05729,0.60935 0.52096,0.14106 3.21229,0.42505 5.97885,0.62817 4.85606,0.35922 7.76179,0.69399 11.09069,1.28454 0.8689,0.15422 3.28752,0.43257 5.37325,0.61876 2.08574,0.18619 5.49927,0.51532 7.585,0.73161 2.08762,0.2144 4.64729,0.46454 5.6911,0.55105 5.30367,0.44762 10.91766,1.025 12.32633,1.2695 0.8689,0.15045 4.28431,0.43256 7.58688,0.62628 3.30256,0.19372 6.43211,0.47206 6.95307,0.61876 0.52284,0.1467 3.22546,0.42881 6.00706,0.6244 2.78161,0.19748 5.91115,0.46267 6.95307,0.59056 1.04381,0.126 3.74642,0.42504 6.00518,0.66201 2.26065,0.23698 4.82032,0.53413 5.6911,0.65826 0.8689,0.12601 4.1395,0.41188 7.26904,0.63757 3.12954,0.22569 6.97,0.51908 8.53477,0.65073 1.56477,0.13165 4.83536,0.38931 7.27091,0.57175 2.43367,0.18243 6.27413,0.49087 8.53289,0.68646 2.26064,0.1956 5.67417,0.47207 7.58688,0.61688 1.91271,0.14482 4.47238,0.41565 5.68922,0.60184 1.21683,0.18807 3.76523,0.51344 5.66101,0.7222 2.8399,0.31408 6.9305,1.24128 10.46063,2.37349 4.03042,1.29018 7.09977,3.58091 13.39835,9.99421 6.72738,6.8534 8.16991,8.90528 8.80371,12.53133 0.15234,0.8689 0.43821,2.00674 0.63757,2.52771 0.19936,0.52096 0.90652,3.08252 1.5723,5.68921 0.66577,2.60858 1.34284,5.16826 1.50458,5.6911 0.16175,0.52097 0.87454,3.22358 1.5817,6.00519 0.70904,2.7816 1.42559,5.55568 1.59298,6.16316 0.16739,0.60936 0.43445,1.6983 0.59431,2.4205 0.15798,0.72409 0.48711,1.9334 0.72973,2.68757 0.24449,0.75418 0.53224,1.94092 0.64133,2.63679 0.11096,0.69587 1.77917,7.80692 3.7088,15.8038 1.93152,7.99688 3.60537,15.10982 3.72197,15.80381 0.11661,0.69587 0.67143,3.54142 1.23,6.32302 0.56046,2.78161 1.16042,6.19514 1.33156,7.585 0.49464,3.98339 1.00432,7.44959 1.35225,9.1667 0.17491,0.87077 0.44385,2.86059 0.59807,4.42536 0.15234,1.56477 0.42129,3.55647 0.5962,4.42537 0.37802,1.87321 0.73348,4.22977 1.28642,8.53477 0.22381,1.73779 0.53601,4.15642 0.69211,5.37325 0.15798,1.21684 0.58679,3.91945 0.95541,6.00706 0.36674,2.08574 0.75417,4.97642 0.86138,6.42271 0.10532,1.44628 0.38179,2.93582 0.61312,3.30821 0.23133,0.37426 0.54917,3.02986 0.70903,5.90362 0.15986,2.87564 0.56234,8.21316 0.89335,11.86367 0.33289,3.65238 0.78991,9.62559 1.01748,13.27609 0.22757,3.65051 0.51156,6.8045 0.63004,7.0095 0.11849,0.205 0.39684,4.32945 0.61876,9.16669 0.22193,4.83725 0.50216,8.95606 0.62441,9.15353 0.12036,0.1956 0.37614,5.31684 0.56798,11.37844 0.19183,6.0616 0.53413,13.86665 0.76358,17.34412 0.22945,3.4756 0.47018,7.175 0.53789,8.21693 0.31032,4.80715 -3.6223,10.56032 -7.81257,11.42357 -1.26573,0.26143 -2.58601,0.53977 -2.93394,0.61688 -0.84633,0.18996 -10.38918,1.6795 -12.11945,1.8939 -0.75606,0.0922 -2.17789,0.34418 -3.16151,0.55858 -0.98363,0.2144 -2.78349,0.51344 -4.00032,0.66578 -2.50138,0.3122 -6.64463,0.97986 -8.53477,1.3767 -0.69587,0.14669 -2.54463,0.41564 -4.1094,0.59995 -1.56477,0.18431 -3.2706,0.47959 -3.79344,0.65638 -0.52097,0.17679 -2.22867,0.45513 -3.79344,0.61876 -1.56289,0.16362 -3.55459,0.47206 -4.42349,0.68459 -2.5277,0.615 -2.75151,0.65261 -6.66344,1.10963 -2.04812,0.23885 -3.87619,0.52848 -4.06238,0.64321 -0.18619,0.11472 -1.9033,0.40436 -3.81601,0.64697 -1.91082,0.24262 -3.6317,0.53413 -3.82165,0.65074 -0.18807,0.1166 -1.89578,0.38555 -3.79156,0.59807 -3.68624,0.41188 -5.66665,0.7316 -8.19059,1.31839 -0.8689,0.20124 -2.00675,0.43069 -2.52771,0.50968 -3.50569,0.52285 -11.12642,6.89665 -11.19224,9.36041 -0.0433,1.6306 -0.81812,7.56619 -1.17358,8.9805 -0.52096,2.07821 0.71656,2.74776 5.72683,3.09945 4.41596,0.30844 5.70991,0.53225 9.41684,1.6306 1.07954,0.31784 3.10132,0.5266 4.49119,0.4589 1.39174,-0.0658 3.38156,0.0921 4.42536,0.35169 1.04381,0.25767 3.46055,0.63757 5.37326,0.84257 1.9127,0.205 4.18839,0.47019 5.05729,0.59055 0.8689,0.12037 3.28752,0.42881 5.37326,0.68459 2.08761,0.25578 4.22977,0.54729 4.76389,0.64697 0.53413,0.0997 2.52583,0.37051 4.42537,0.6056 3.66555,0.44949 5.39958,0.69211 8.60247,1.20179 1.09271,0.17491 3.92509,0.50403 6.29482,0.73348 2.36972,0.22945 4.74697,0.4984 5.28298,0.5962 0.91027,0.16926 4.29183,0.615 9.51087,1.25256 1.21683,0.15046 4.34637,0.58491 6.95307,0.9667 2.60858,0.38179 6.16316,0.82 7.90284,0.97422 1.7378,0.15422 3.87243,0.42129 4.74133,0.59243 0.8689,0.17303 3.28376,0.48523 5.36573,0.69587 2.08009,0.21065 3.94954,0.48523 4.15078,0.60936 0.20124,0.12601 1.48578,-0.15422 2.85307,-0.62064 1.3673,-0.46642 4.76202,-1.0344 7.54363,-1.26009 2.7816,-0.22757 6.76499,-0.6733 8.85073,-0.99115 2.08573,-0.31784 5.35821,-0.73725 7.27091,-0.93284 1.91083,-0.1956 4.18652,-0.48335 5.0573,-0.63945 0.86889,-0.1561 3.57151,-0.44574 6.00518,-0.64321 2.43367,-0.1956 5.13628,-0.49087 6.00518,-0.65638 0.8689,-0.16362 3.14459,-0.43069 5.05729,-0.59243 4.57395,-0.38367 9.71963,-1.02876 10.11459,-1.26761 0.1749,-0.10532 2.73458,-0.37803 5.6911,-0.60748 2.95463,-0.22757 5.80018,-0.53037 6.32114,-0.66954 0.91592,-0.24638 1.89202,-0.36298 10.74651,-1.2789 2.26064,-0.23509 4.53633,-0.5078 5.05729,-0.60748 0.52285,-0.0997 2.79854,-0.37238 5.0573,-0.60559 2.26064,-0.23321 5.24724,-0.57363 6.63899,-0.75794 1.38986,-0.18431 3.69376,-0.37991 5.11747,-0.43445 4.77518,-0.18243 5.48234,-2.54839 3.24427,-10.84619 -0.37615,-1.38986 -0.62817,-2.75527 -0.56046,-3.03362 0.1561,-0.64697 -6.10298,-6.765 -6.9211,-6.765 -0.33853,0 -1.3861,-0.56234 -2.32835,-1.24881 -0.94225,-0.68646 -2.99413,-1.39738 -4.5589,-1.57981 -1.56289,-0.18243 -3.55458,-0.46831 -4.42348,-0.63757 -0.87078,-0.16739 -2.57661,-0.46078 -3.79344,-0.65074 -1.21684,-0.18995 -3.77839,-0.60559 -5.68922,-0.92155 -1.91271,-0.31785 -4.90119,-0.7523 -6.63899,-0.9667 -1.7378,-0.21252 -4.29936,-0.63945 -5.68922,-0.94789 -1.39174,-0.30656 -3.91568,-0.7222 -5.61023,-0.92344 -1.69454,-0.20124 -3.25931,-0.47395 -3.47747,-0.60936 -0.21817,-0.13353 -1.90518,-0.41188 -3.7483,-0.61688 -1.845,-0.205 -3.97964,-0.51344 -4.74133,-0.68271 -0.76358,-0.17114 -2.66876,-0.46454 -4.23353,-0.65449 -1.56477,-0.18995 -3.41353,-0.4495 -4.10941,-0.57927 -0.69399,-0.12977 -3.36651,-0.55293 -5.93559,-0.94036 -2.57096,-0.38743 -5.27358,-0.83129 -6.00706,-0.98551 -0.73161,-0.15422 -2.89633,-0.44009 -4.80904,-0.63757 -7.02266,-0.7222 -10.78412,-1.96348 -13.16137,-4.34073 -2.76656,-2.76656 -2.68569,0.15234 -1.09459,-39.28852 0.64697,-16.04078 0.89147,-19.93954 1.54408,-24.65454 0.33665,-2.43555 0.78051,-6.41706 0.98739,-8.85073 0.20876,-2.43367 0.49839,-5.13628 0.64509,-6.00706 0.14858,-0.8689 0.44197,-3.28564 0.6545,-5.37326 0.5661,-5.57637 0.90275,-8.5799 1.24316,-11.06247 0.16739,-1.21683 0.47959,-4.34638 0.69399,-6.95495 0.21629,-2.6067 0.47583,-4.88239 0.57927,-5.05729 0.10156,-0.17303 0.37238,-2.50702 0.59995,-5.18519 0.22945,-2.67816 0.51344,-5.38078 0.63381,-6.00518 0.25014,-1.30335 1.06261,-8.43509 1.28078,-11.25055 0.0809,-1.0438 0.34793,-3.31949 0.59431,-5.05729 0.24449,-1.73968 0.56046,-4.44229 0.69963,-6.00706 0.55106,-6.20266 1.09271,-9.96413 1.95596,-13.59206 0.49652,-2.08574 1.05133,-4.50436 1.23189,-5.37326 0.18055,-0.8689 0.47206,-2.05564 0.64697,-2.63679 0.17491,-0.57926 0.44761,-1.64564 0.60747,-2.36972 0.15987,-0.72408 0.41941,-1.81303 0.57739,-2.4205 1.87697,-7.22954 2.95275,-11.49693 3.22546,-12.80216 0.18055,-0.8689 0.47206,-2.05564 0.64697,-2.63678 0.17491,-0.58115 0.44761,-1.64753 0.60748,-2.36973 0.15986,-0.72408 0.45513,-1.95596 0.65637,-2.73835 0.20124,-0.78238 0.47959,-1.99169 0.62064,-2.68568 0.13918,-0.69588 0.97799,-4.10941 1.86193,-7.58688 1.95408,-7.68656 2.0989,-8.2978 2.60294,-10.9628 0.22004,-1.16041 1.0833,-4.00596 1.92022,-6.32114 2.01427,-5.57826 2.11395,-5.97509 2.99977,-11.95395 0.53978,-3.6411 2.39794,-6.35875 8.42757,-12.3282 3.42482,-3.38908 6.44904,-6.16317 6.71798,-6.16317 0.26895,0 1.75096,-0.86701 3.29128,-1.92775 1.54033,-1.05885 2.80042,-1.75096 2.80042,-1.53656 0,0.21441 0.78238,-0.1655 1.73779,-0.84257 2.6951,-1.91082 6.93051,-3.0938 12.80216,-3.57715 2.95463,-0.24262 6.22711,-0.54918 7.26903,-0.68083 1.04381,-0.13165 4.31629,-0.40435 7.27092,-0.60747 2.95463,-0.20312 5.80018,-0.48899 6.32114,-0.63569 0.52285,-0.1467 3.50945,-0.42129 6.63899,-0.60748 3.12954,-0.18807 6.68413,-0.47206 7.90096,-0.63381 1.21684,-0.15986 4.63225,-0.44949 7.58688,-0.64321 2.95463,-0.19371 6.37005,-0.47958 7.58688,-0.6338 2.59729,-0.33289 7.20133,-0.73725 14.22399,-1.25257 2.7816,-0.205 5.91114,-0.50216 6.95307,-0.66202 1.04381,-0.16174 4.03041,-0.43633 6.63899,-0.615 2.60669,-0.17679 5.45224,-0.45326 6.32114,-0.615 0.8689,-0.15986 3.42858,-0.4589 5.68922,-0.66578 2.26064,-0.205 5.95817,-0.63005 8.21881,-0.94413 2.26064,-0.31408 5.81523,-0.72596 7.90284,-0.9178 2.08573,-0.19183 4.9294,-0.49463 6.32114,-0.67142 1.38987,-0.17679 4.23542,-0.45137 6.32115,-0.61124 2.08573,-0.16174 4.93128,-0.43256 6.32303,-0.60371 1.38986,-0.17115 4.09247,-0.45702 6.00518,-0.63569 6.44527,-0.60371 10.68444,-1.00807 13.40963,-1.27702 1.49142,-0.14669 4.55889,-0.4288 6.81954,-0.62252 2.26064,-0.1956 5.10431,-0.49463 6.32114,-0.66202 1.21872,-0.16926 4.06239,-0.45137 6.32303,-0.62816 2.26064,-0.17679 5.10431,-0.45702 6.32114,-0.62441 1.21684,-0.1655 3.63546,-0.43445 5.37326,-0.59431 8.15674,-0.75041 12.1138,-1.16793 13.2761,-1.40303 0.69587,-0.14105 2.97155,-0.39307 5.05729,-0.56045 2.08573,-0.16739 4.50435,-0.46643 5.37325,-0.66578 0.8689,-0.19748 3.42858,-0.47771 5.68922,-0.62253 2.26064,-0.14481 5.96005,-0.53977 8.21881,-0.8783 4.69619,-0.70151 15.0233,-1.85252 16.43761,-1.82995 0.52096,0.008 1.51775,-0.11849 2.21174,-0.27835 1.56477,-0.3611 6.49981,-1.20743 8.26582,-1.41619 0.72221,-0.0846 2.85496,-0.46266 4.74133,-0.84069 1.88638,-0.37803 4.42537,-0.84069 5.6422,-1.02876 1.21684,-0.1862 2.92454,-0.47019 3.79344,-0.63381 0.8689,-0.16174 2.57661,-0.45138 3.79344,-0.64321 1.21684,-0.19184 5.20023,-0.92908 8.85073,-1.64 15.93922,-3.09945 18.11711,-2.90197 23.2816,2.10266 3.56023,3.45303 6.49418,4.29936 6.1011,1.76225 -0.13353,-0.86326 -0.9272,-4.90496 -1.92399,-9.79862 -1.22247,-5.99578 -1.45569,-7.09789 -1.80362,-8.53477 -0.20876,-0.8689 -0.53413,-2.43367 -0.71844,-3.47748 -0.89523,-5.0366 -1.71711,-6.58445 -5.87729,-11.09068 -4.00409,-4.33886 -10.20862,-9.48642 -10.20862,-8.47083 0,0.23697 -0.99679,-0.32913 -2.21363,-1.25633 -1.21683,-0.92908 -2.21174,-1.54784 -2.21174,-1.37481 0,0.17302 -1.4933,-0.3423 -3.3195,-1.14537 -7.3988,-3.24991 -21.74315,-7.15619 -30.50361,-8.3072 -1.7378,-0.22757 -3.42294,-0.57362 -3.74266,-0.76734 -0.31973,-0.19371 -1.45757,-0.41752 -2.52771,-0.49651 -1.07201,-0.0771 -4.08119,-0.34418 -6.68788,-0.59055 -7.79188,-0.73913 -9.52592,-0.87266 -15.80569,-1.23188 -3.30257,-0.18808 -8.4238,-0.48147 -11.37844,-0.65074 -2.95463,-0.17114 -9.4977,-0.4683 -14.53995,-0.65825 -5.04224,-0.19184 -11.01545,-0.47959 -13.27609,-0.64133 -4.02289,-0.28776 -14.23528,-0.69776 -30.65972,-1.22812 -4.52128,-0.1467 -13.34004,-0.45326 -19.59912,-0.68271 -15.95615,-0.58303 -23.62578,-0.83128 -36.34894,-1.17734 -6.08605,-0.1655 -14.76188,-0.4683 -19.28128,-0.6733 -4.52128,-0.20688 -14.62082,-0.50404 -22.44279,-0.6639 -7.82385,-0.15986 -18.49137,-0.44761 -23.70665,-0.63757 -5.21527,-0.18995 -13.75004,-0.47206 -18.96531,-0.62628 -12.29812,-0.36487 -15.24335,-0.99679 -19.15527,-4.11129 -3.11638,-2.48256 -8.34482,-8.69651 -8.34482,-9.92087 0,-0.35922 -0.40247,-0.98738 -0.89335,-1.3955 -2.13087,-1.76789 -3.4549,-6.24027 -4.15077,-14.01523 -0.38744,-4.31252 -0.81436,-8.2677 -0.94977,-8.78866 -0.1373,-0.52097 -0.41565,-2.93959 -0.61877,-5.37326 -0.205,-2.43367 -0.65073,-6.56 -0.99302,-9.16669 -0.3423,-2.60858 -0.74854,-6.59009 -0.90464,-8.85073 -0.25578,-3.74078 -0.72972,-8.59307 -1.33156,-13.59206 -0.12412,-1.04193 -0.39683,-4.3144 -0.60371,-7.26904 -0.48711,-6.98692 -0.79555,-10.13903 -1.13784,-11.69628 -0.15422,-0.69587 -0.489,-2.54463 -0.74666,-4.1094 -0.90275,-5.49738 -0.99867,-6.01459 -1.31275,-7.06027 -0.17491,-0.58115 -0.43821,-1.71899 -0.58491,-2.52959 -0.37238,-2.05752 -4.68866,-5.74188 -7.85582,-6.70482 -5.98825,-1.81866 -10.59229,-4.95385 -10.66752,-7.26339 -0.008,-0.26518 -0.22569,-1.68702 -0.48523,-3.15963 -0.25766,-1.47261 -0.51908,-3.10509 -0.57738,-3.62605 -0.0602,-0.52285 -0.30468,-1.80175 -0.54354,-2.84555 -0.23885,-1.04193 -0.57174,-2.53711 -0.73912,-3.3195 -1.49143,-6.94555 -2.29826,-9.39802 -4.77519,-14.53243 -1.38234,-2.86435 -2.5277,-5.42403 -2.54463,-5.68921 -0.19183,-3.0656 -3.26119,-3.15588 -5.62903,-0.16551"
       style="display:inline;fill:#aa0000;stroke-width:0.662073"
       sodipodi:nodetypes="cscscssccccccsccccsscscccccssscsccsccsccccccsccccccsscsccccccccccccscccscscscccccsccscccscccccssccscccccscccccccccccccccccccscssscscccccsccsccccscccccccccccsscsccscccccccscscccccccccccccccssccscccscccsccccsccccccccccscccscsccscsccccccscscccscccsccccccsccccccccscscscsccccsccscccccccscsccscccccsccscssccscccccccccccsccccccccc" />
  </g>
</svg>
